<svg width="34" height="33" viewBox="0 0 34 33" fill="none" xmlns="http://www.w3.org/2000/svg">
<path d="M10.1172 13.2891H3.17188C1.42188 13.2891 0 11.8672 0 10.1172V3.17187C0 1.42187 1.42188 0 3.17188 0H10.1172C11.8672 0 13.2891 1.42187 13.2891 3.17187V10.1172C13.2891 11.8672 11.8672 13.2891 10.1172 13.2891ZM3.17188 1.91406C2.51563 1.91406 1.91406 2.46094 1.91406 3.17187V10.1172C1.91406 10.7734 2.46094 11.375 3.17188 11.375H10.1172C10.7734 11.375 11.375 10.8281 11.375 10.1172V3.17187C11.375 2.51562 10.8281 1.91406 10.1172 1.91406H3.17188Z" fill="white"/>
<path d="M30.5156 13.2891H23.5703C21.8203 13.2891 20.3984 11.8672 20.3984 10.1172V3.17187C20.3984 1.42187 21.8203 0 23.5703 0H30.5156C32.2656 0 33.6875 1.42187 33.6875 3.17187V10.1172C33.6875 11.8672 32.2656 13.2891 30.5156 13.2891ZM23.5703 1.91406C22.9141 1.91406 22.3125 2.46094 22.3125 3.17187V10.1172C22.3125 10.7734 22.8594 11.375 23.5703 11.375H30.5156C31.1719 11.375 31.7734 10.8281 31.7734 10.1172V3.17187C31.7734 2.51562 31.2266 1.91406 30.5156 1.91406H23.5703Z" fill="white"/>
<path d="M10.1172 32.9219H3.17188C1.42188 32.9219 0 31.5 0 29.75V22.8047C0 21.0547 1.42188 19.6328 3.17188 19.6328H10.1172C11.8672 19.6328 13.2891 21.0547 13.2891 22.8047V29.75C13.2891 31.5 11.8672 32.9219 10.1172 32.9219ZM3.17188 21.5469C2.51563 21.5469 1.91406 22.0938 1.91406 22.8047V29.75C1.91406 30.4063 2.46094 31.0078 3.17188 31.0078H10.1172C10.7734 31.0078 11.375 30.4609 11.375 29.75V22.8047C11.375 22.1484 10.8281 21.5469 10.1172 21.5469H3.17188V21.5469Z" fill="white"/>
<path d="M30.5156 32.9219H23.5703C21.8203 32.9219 20.3984 31.5 20.3984 29.75V22.8047C20.3984 21.0547 21.8203 19.6328 23.5703 19.6328H30.5156C32.2656 19.6328 33.6875 21.0547 33.6875 22.8047V29.75C33.6875 31.5 32.2656 32.9219 30.5156 32.9219ZM23.5703 21.5469C22.9141 21.5469 22.3125 22.0938 22.3125 22.8047V29.75C22.3125 30.4063 22.8594 31.0078 23.5703 31.0078H30.5156C31.1719 31.0078 31.7734 30.4609 31.7734 29.75V22.8047C31.7734 22.1484 31.2266 21.5469 30.5156 21.5469H23.5703V21.5469Z" fill="white"/>
</svg>
