<svg width="34" height="20" viewBox="0 0 34 20" fill="none" xmlns="http://www.w3.org/2000/svg">
<path d="M16.8437 0C7.54687 0 0 8.20313 0 18.2656C0 18.8125 0.4375 19.25 0.984375 19.25H32.7031C33.25 19.25 33.6875 18.8125 33.6875 18.2656C33.6875 8.20313 26.1406 0 16.8437 0ZM18.8125 17.3359L17.3359 12.6328C17.1719 12.1406 16.5156 12.1406 16.3516 12.6328L14.875 17.3359H1.96875C2.40625 8.75 8.91406 1.91406 16.8437 1.91406C24.7734 1.91406 31.2812 8.75 31.7188 17.3359H18.8125V17.3359Z" fill="white"/>
<path d="M16.8437 5.90625C16.2969 5.90625 15.8594 6.34375 15.8594 6.89062V8.3125C15.8594 8.85937 16.2969 9.29687 16.8437 9.29687C17.3906 9.29687 17.8281 8.85937 17.8281 8.3125V6.89062C17.8281 6.34375 17.3906 5.90625 16.8437 5.90625Z" fill="white"/>
<path d="M25.2109 10.0078L24.3359 10.9375C23.9531 11.3203 23.9531 11.9219 24.3359 12.3047C24.5 12.4688 24.7734 12.5781 24.9922 12.5781C25.2656 12.5781 25.4844 12.4688 25.7031 12.3047L26.5781 11.375C26.9609 10.9922 26.9609 10.3906 26.5781 10.0078C26.1953 9.625 25.5938 9.625 25.2109 10.0078Z" fill="white"/>
<path d="M8.47656 10.0078C8.14843 9.625 7.49218 9.57031 7.10937 9.95312C6.72656 10.2812 6.67187 10.9375 7.05468 11.3203L7.875 12.25C8.03906 12.4687 8.31249 12.5781 8.58593 12.5781C8.80468 12.5781 9.02343 12.5234 9.24218 12.3594C9.62499 12.0312 9.67968 11.375 9.29687 10.9922L8.47656 10.0078Z" fill="white"/>
</svg>
