<svg width="28" height="34" viewBox="0 0 28 34" fill="none" xmlns="http://www.w3.org/2000/svg">
<path d="M25.8125 20.9934L24.9375 20.5012L25.9766 19.8997C27.0156 19.2434 27.6172 18.1497 27.5625 16.9465C27.5078 15.7434 26.9063 14.6497 25.8125 14.0481L24.1719 13.1184L25.9219 12.0247C26.9609 11.3684 27.5625 10.2747 27.5078 9.07153C27.4531 7.86841 26.8516 6.77466 25.7578 6.1731L15.5313 0.430908C14.4922 -0.170655 13.2344 -0.115967 12.1953 0.430908L1.69531 6.55591C0.65625 7.15747 0 8.25122 0 9.45435C0 10.6575 0.65625 11.7512 1.69531 12.3528L3.39062 13.3372L1.69531 14.3215C0.65625 14.9231 0 16.0168 0 17.22C0 18.4231 0.601562 19.5168 1.69531 20.1184L2.67969 20.6653L1.75 21.2122C0.710937 21.8137 0.0546874 22.9075 0.0546874 24.1106C0.0546874 25.3137 0.65625 26.4075 1.75 27.009L12.1953 33.0247C12.7422 33.3528 13.2891 33.4622 13.8906 33.4622C14.4922 33.4622 15.0938 33.2981 15.6406 32.97L25.9766 26.6262C27.0156 25.97 27.6172 24.8762 27.5625 23.6731C27.5078 22.634 26.9063 21.5403 25.8125 20.9934ZM1.91406 9.45435C1.91406 8.90747 2.1875 8.46997 2.625 8.19653L13.125 2.12622C13.3438 2.01685 13.6172 1.90747 13.8359 1.90747C14.0547 1.90747 14.3281 1.96216 14.5469 2.07153L24.8281 7.81372C25.2656 8.08716 25.5391 8.52466 25.5937 9.07153C25.5937 9.61841 25.3203 10.0559 24.8828 10.3293L14.6016 16.7278C14.1641 17.0012 13.5625 17.0012 13.125 16.7278L2.67969 10.7122C2.1875 10.4934 1.91406 10.0012 1.91406 9.45435ZM1.91406 17.2747C1.91406 16.7278 2.1875 16.2903 2.625 16.0168L5.30469 14.4856L12.1406 18.4231C12.6875 18.7512 13.2344 18.8606 13.8359 18.8606C14.4375 18.8606 15.0391 18.6965 15.5859 18.3684L22.3125 14.2122L24.8828 15.634C25.3203 15.9075 25.5938 16.345 25.6484 16.8918C25.6484 17.4387 25.375 17.8762 24.9375 18.1497L14.6016 24.6028C14.1641 24.8762 13.5625 24.8762 13.125 24.6028L2.67969 18.5872C2.1875 18.3137 1.91406 17.8215 1.91406 17.2747ZM24.9375 25.1497L14.6016 31.5481C14.1641 31.8215 13.5625 31.8215 13.125 31.5481L2.67969 25.5325C2.24219 25.259 1.96875 24.8215 1.96875 24.2747C1.96875 23.7278 2.24219 23.2903 2.67969 23.0168L4.59375 21.9231L12.1406 26.2981C12.6875 26.6262 13.2344 26.7356 13.8359 26.7356C14.4375 26.7356 15.0391 26.5715 15.5859 26.2434L23.0781 21.595L24.9375 22.634C25.375 22.9075 25.6484 23.345 25.7031 23.8918C25.6484 24.384 25.375 24.8762 24.9375 25.1497Z" fill="white"/>
</svg>
