<svg width="34" height="30" viewBox="0 0 34 30" fill="none" xmlns="http://www.w3.org/2000/svg">
<path d="M3.32895 12.9063C3.49301 12.9063 3.65707 12.9063 3.76645 12.8516L9.83676 10.7188C10.3289 10.5547 10.6024 10.0078 10.4383 9.51563C10.2743 9.02344 9.72738 8.75 9.2352 8.91406L5.57113 10.2266C7.37582 5.25 12.1336 1.85938 17.6571 1.85938C23.5086 1.85938 28.6493 5.74219 30.0711 11.375C30.1805 11.8672 30.7274 12.1953 31.2196 12.0859C31.7118 11.9766 32.0399 11.4297 31.9305 10.9375C30.2899 4.48438 24.3836 0 17.6571 0C11.0946 0 5.40707 4.21094 3.5477 10.3359L1.85238 5.57813C1.68832 5.08594 1.14145 4.8125 0.649259 4.97656C0.157072 5.14063 -0.116366 5.6875 0.0476966 6.17969L2.12582 12.1406C2.28988 12.5781 2.83676 12.9063 3.32895 12.9063Z" fill="white"/>
<path d="M33.5164 24.6094L31.2743 18.7032C31.1649 18.375 30.8914 18.1016 30.5633 17.9922C30.2352 17.8828 29.9071 17.8282 29.5789 17.9922L23.5633 20.2891C23.0711 20.4532 22.7977 21.0547 23.0164 21.5469C23.1805 22.0391 23.7821 22.3125 24.2743 22.0938L27.993 20.6719C25.9149 24.9922 21.4852 27.836 16.4539 27.836C10.9305 27.836 6.06332 24.3907 4.36801 19.25C4.14926 18.7578 3.60238 18.4844 3.1102 18.6485C2.61801 18.8125 2.34457 19.3594 2.50863 19.8516C4.47738 25.7578 10.0555 29.75 16.3993 29.75C22.4149 29.75 27.7743 26.1953 29.9618 20.7813L31.7118 25.3203C31.8758 25.7032 32.2039 25.9219 32.5868 25.9219C32.6961 25.9219 32.8055 25.9219 32.9149 25.8672C33.4618 25.6485 33.7352 25.1016 33.5164 24.6094Z" fill="white"/>
</svg>
